<mxfile host="app.diagrams.net" modified="2022-03-02T02:21:12.240Z" agent="5.0 (Macintosh; Intel Mac OS X 10_15_7) AppleWebKit/537.36 (KHTML, like Gecko) Chrome/98.0.4758.109 Safari/537.36" etag="VVBefZFwlParq6B7BO0-" version="16.6.4" type="github">
  <diagram id="C5RBs43oDa-KdzZeNtuy" name="Page-1">
    <mxGraphModel dx="1186" dy="1611" grid="1" gridSize="10" guides="1" tooltips="1" connect="1" arrows="1" fold="1" page="1" pageScale="1" pageWidth="827" pageHeight="1169" math="0" shadow="0">
      <root>
        <mxCell id="WIyWlLk6GJQsqaUBKTNV-0" />
        <mxCell id="WIyWlLk6GJQsqaUBKTNV-1" parent="WIyWlLk6GJQsqaUBKTNV-0" />
        <mxCell id="zlkQb6UPZ2ooEcGw94Lv-23" style="edgeStyle=orthogonalEdgeStyle;rounded=0;orthogonalLoop=1;jettySize=auto;html=1;entryX=0.5;entryY=0;entryDx=0;entryDy=0;" edge="1" parent="WIyWlLk6GJQsqaUBKTNV-1" source="zlkQb6UPZ2ooEcGw94Lv-0" target="zlkQb6UPZ2ooEcGw94Lv-2">
          <mxGeometry relative="1" as="geometry" />
        </mxCell>
        <mxCell id="zlkQb6UPZ2ooEcGw94Lv-0" value="START" style="strokeWidth=2;html=1;shape=mxgraph.flowchart.start_1;whiteSpace=wrap;" vertex="1" parent="WIyWlLk6GJQsqaUBKTNV-1">
          <mxGeometry x="371" y="60" width="100" height="60" as="geometry" />
        </mxCell>
        <mxCell id="zlkQb6UPZ2ooEcGw94Lv-1" value="STOP" style="strokeWidth=2;html=1;shape=mxgraph.flowchart.terminator;whiteSpace=wrap;" vertex="1" parent="WIyWlLk6GJQsqaUBKTNV-1">
          <mxGeometry x="371" y="710" width="100" height="60" as="geometry" />
        </mxCell>
        <mxCell id="zlkQb6UPZ2ooEcGw94Lv-22" style="edgeStyle=orthogonalEdgeStyle;rounded=0;orthogonalLoop=1;jettySize=auto;html=1;entryX=0.5;entryY=0;entryDx=0;entryDy=0;" edge="1" parent="WIyWlLk6GJQsqaUBKTNV-1" source="zlkQb6UPZ2ooEcGw94Lv-2" target="zlkQb6UPZ2ooEcGw94Lv-3">
          <mxGeometry relative="1" as="geometry" />
        </mxCell>
        <mxCell id="zlkQb6UPZ2ooEcGw94Lv-2" value="OUTPUT&lt;br&gt;&quot;Enter 2 numbers&quot;" style="shape=parallelogram;perimeter=parallelogramPerimeter;whiteSpace=wrap;html=1;fixedSize=1;" vertex="1" parent="WIyWlLk6GJQsqaUBKTNV-1">
          <mxGeometry x="349" y="160" width="144" height="80" as="geometry" />
        </mxCell>
        <mxCell id="zlkQb6UPZ2ooEcGw94Lv-21" style="edgeStyle=orthogonalEdgeStyle;rounded=0;orthogonalLoop=1;jettySize=auto;html=1;entryX=0.5;entryY=0;entryDx=0;entryDy=0;entryPerimeter=0;" edge="1" parent="WIyWlLk6GJQsqaUBKTNV-1" source="zlkQb6UPZ2ooEcGw94Lv-3" target="zlkQb6UPZ2ooEcGw94Lv-4">
          <mxGeometry relative="1" as="geometry" />
        </mxCell>
        <mxCell id="zlkQb6UPZ2ooEcGw94Lv-3" value="INPUT&lt;br&gt;X, Y" style="shape=parallelogram;perimeter=parallelogramPerimeter;whiteSpace=wrap;html=1;fixedSize=1;" vertex="1" parent="WIyWlLk6GJQsqaUBKTNV-1">
          <mxGeometry x="348" y="280" width="146" height="80" as="geometry" />
        </mxCell>
        <mxCell id="zlkQb6UPZ2ooEcGw94Lv-7" style="edgeStyle=orthogonalEdgeStyle;rounded=0;orthogonalLoop=1;jettySize=auto;html=1;" edge="1" parent="WIyWlLk6GJQsqaUBKTNV-1" source="zlkQb6UPZ2ooEcGw94Lv-4" target="zlkQb6UPZ2ooEcGw94Lv-6">
          <mxGeometry relative="1" as="geometry" />
        </mxCell>
        <mxCell id="zlkQb6UPZ2ooEcGw94Lv-10" style="edgeStyle=orthogonalEdgeStyle;rounded=0;orthogonalLoop=1;jettySize=auto;html=1;entryX=0.5;entryY=0;entryDx=0;entryDy=0;" edge="1" parent="WIyWlLk6GJQsqaUBKTNV-1" source="zlkQb6UPZ2ooEcGw94Lv-4" target="zlkQb6UPZ2ooEcGw94Lv-5">
          <mxGeometry relative="1" as="geometry" />
        </mxCell>
        <mxCell id="zlkQb6UPZ2ooEcGw94Lv-4" value="X &amp;gt; Y" style="strokeWidth=2;html=1;shape=mxgraph.flowchart.decision;whiteSpace=wrap;" vertex="1" parent="WIyWlLk6GJQsqaUBKTNV-1">
          <mxGeometry x="364" y="400" width="114" height="120" as="geometry" />
        </mxCell>
        <mxCell id="zlkQb6UPZ2ooEcGw94Lv-9" style="edgeStyle=orthogonalEdgeStyle;rounded=0;orthogonalLoop=1;jettySize=auto;html=1;entryX=0.5;entryY=0;entryDx=0;entryDy=0;entryPerimeter=0;" edge="1" parent="WIyWlLk6GJQsqaUBKTNV-1" source="zlkQb6UPZ2ooEcGw94Lv-5" target="zlkQb6UPZ2ooEcGw94Lv-1">
          <mxGeometry relative="1" as="geometry" />
        </mxCell>
        <mxCell id="zlkQb6UPZ2ooEcGw94Lv-5" value="OUTPUT&lt;br&gt;&quot;Enter 2 numbers&quot;" style="shape=parallelogram;perimeter=parallelogramPerimeter;whiteSpace=wrap;html=1;fixedSize=1;" vertex="1" parent="WIyWlLk6GJQsqaUBKTNV-1">
          <mxGeometry x="349" y="585" width="144" height="80" as="geometry" />
        </mxCell>
        <mxCell id="zlkQb6UPZ2ooEcGw94Lv-19" style="edgeStyle=orthogonalEdgeStyle;rounded=0;orthogonalLoop=1;jettySize=auto;html=1;" edge="1" parent="WIyWlLk6GJQsqaUBKTNV-1" source="zlkQb6UPZ2ooEcGw94Lv-6">
          <mxGeometry relative="1" as="geometry">
            <mxPoint x="420" y="560" as="targetPoint" />
            <Array as="points">
              <mxPoint x="600" y="560" />
            </Array>
          </mxGeometry>
        </mxCell>
        <mxCell id="zlkQb6UPZ2ooEcGw94Lv-6" value="temp = X&lt;br&gt;X = Y&lt;br&gt;Y = temp" style="rounded=0;whiteSpace=wrap;html=1;" vertex="1" parent="WIyWlLk6GJQsqaUBKTNV-1">
          <mxGeometry x="540" y="430" width="120" height="60" as="geometry" />
        </mxCell>
        <mxCell id="zlkQb6UPZ2ooEcGw94Lv-11" value="true" style="text;html=1;align=center;verticalAlign=middle;resizable=0;points=[];autosize=1;strokeColor=none;fillColor=none;" vertex="1" parent="WIyWlLk6GJQsqaUBKTNV-1">
          <mxGeometry x="471" y="430" width="40" height="20" as="geometry" />
        </mxCell>
        <mxCell id="zlkQb6UPZ2ooEcGw94Lv-20" value="false" style="text;html=1;align=center;verticalAlign=middle;resizable=0;points=[];autosize=1;strokeColor=none;fillColor=none;" vertex="1" parent="WIyWlLk6GJQsqaUBKTNV-1">
          <mxGeometry x="430" y="520" width="40" height="20" as="geometry" />
        </mxCell>
      </root>
    </mxGraphModel>
  </diagram>
</mxfile>
